<?xml version="1.0" encoding="UTF-8"?>
<svg id="Capa_1" data-name="Capa 1" xmlns="http://www.w3.org/2000/svg" viewBox="0 0 180 105">
  <defs>
    <style>
      .cls-1 {
        fill: #fff;
      }
    </style>
  </defs>
  <path class="cls-1" d="M53.3,47.4c6.2,1.4,11.8,4.2,17.6,8-.3-7,0-13.2,1.8-19.2,.5-1.5,0-2.2-1.1-3.1-4.9-3.6-10.3-6.2-16.1-7.9-1.8-.5-2.7-.2-3.2,1.8-1.4,5.9-1.8,11.9-1.2,17.9,.2,1.6,.8,2.2,2.2,2.5Z"/>
  <path class="cls-1" d="M109,55.5c5.8-3.9,11.4-6.6,17.6-8,1.5-.3,2-1.1,2.2-2.5,.8-6.2,.2-12.3-1.3-18.3-.4-1.6-1.2-2-2.7-1.5-6,1.7-11.5,4.3-16.5,8-1.2,.9-1.5,1.7-1.1,3.2,1.8,5.9,2.3,12.1,1.8,19.1h0Z"/>
  <path class="cls-1" d="M70,59.2c-12.5-9.1-26.3-11.9-41.4-8.4-2.1,.5-2.4,1.4-1.9,3.4,1.8,6.3,4.7,11.9,8.7,17,12.2,15.1,33.8,22.2,50.8,16.3-7.2-7.3-11.9-15.6-14.2-25.3-.2-1.3-.9-2.2-2-3h0Z"/>
  <path class="cls-1" d="M150.9,50.7c-14.8-3.4-28.4-.6-40.7,8.3-1,.7-2,1.5-2.3,2.8-2.2,9.8-7,18.2-14.3,25.7,24.4,7.5,52.6-7.6,59.6-33.6,.7-2.3-.5-2.8-2.3-3.2h0Z"/>
  <path class="cls-1" d="M92,16.7c-1.6-1.6-2.5-1.7-4.2,0-9,9.3-13.4,20.5-13.6,33.8,.3,12.7,4.6,24.2,13.8,33.7,1.5,1.6,2.3,1.5,3.9,0,18.2-17.6,18.3-49.7,.1-67.5Z"/>
  <path class="cls-1" d="M179.5,0H-.5V105H183.6V0h-4.1Zm-22.2,53c-6.5,28-36.2,45.8-64.1,38.2-2.3-.6-4.3-.6-6.6,0-28.4,7.5-57-9.8-63.8-38.3-.7-3.1,.2-4.4,3.1-5.1,6.3-1.5,12.6-2.4,19.1-1.7,2.2,.2,2.8-.3,2.6-2.6-.6-6.5,.2-12.8,1.8-19.1,.9-3.5,2.6-4.1,5.7-3.2,6.9,2.1,13.4,5,19.4,9.5,3-6.6,6.8-12.4,11.7-17.4,3.6-3.7,4.1-3.7,7.8,.1,4.1,4.3,7.8,9,10.1,14.4,1,2.2,1.7,2.8,3.9,1.1,5.2-3.9,11.2-6.1,17.4-7.9,3.1-.9,4.5,.2,5.2,3,1.5,6.3,2.7,12.6,1.8,19-.3,2.4,.2,3,2.7,2.8,6.6-.7,13,.1,19.4,2,2.7,1.1,3.4,2.4,2.8,5.2h0Z"/>
</svg>